name analog
datacolumns 19
datarows 51
range 0.0 0.025
endheader
time	ground_force_vx	ground_force_vy	ground_force_vz	ground_force_px	ground_force_py	ground_force_pz	l_ground_force_vx	l_ground_force_vy	l_ground_force_vz	l_ground_force_px	l_ground_force_py	l_ground_force_pz	ground_torque_x	ground_torque_y	ground_torque_z	l_ground_torque_x	l_ground_torque_y	l_ground_torque_z
0.0	-0.0	-0.0	-0.0	30.766450881958008	52.9963493347168	-329.7156066894531	-9.403343200683594	-116.7116928100586	-501.32659912109375	-0.0	-0.0	-0.0	-0.0	-0.0	-0.0	67347.9375	-2668.489501953125	-925.213134765625
0.0005	-0.0	-0.0	-0.0	30.777626037597656	52.458984375	-330.0152587890625	-8.488700866699219	-115.94149780273438	-502.2325439453125	-0.0	-0.0	-0.0	-0.0	-0.0	-0.0	67730.9375	-2577.7763671875	-989.339111328125
0.001	-0.0	-0.0	-0.0	30.828102111816406	52.02693939208984	-333.30194091796875	-7.781507015228271	-115.81466674804688	-503.9243469238281	-0.0	-0.0	-0.0	-0.0	-0.0	-0.0	68300.5546875	-2761.942626953125	-920.32958984375
0.0015	-0.0	-0.0	-0.0	30.905487060546875	52.575042724609375	-336.9866027832031	-7.388078689575195	-115.28477478027344	-505.3211364746094	-0.0	-0.0	-0.0	-0.0	-0.0	-0.0	68932.3203125	-3205.23779296875	-873.5174560546875
0.002	-0.0	-0.0	-0.0	30.30621337890625	54.675392150878906	-345.1123352050781	-6.577819347381592	-114.89334869384766	-509.5112609863281	-0.0	-0.0	-0.0	-0.0	-0.0	-0.0	69441.6171875	-3533.6259765625	-771.0409545898438
0.0025	-0.0	-0.0	-0.0	27.96078491210937	57.90983581542969	-352.8286437988281	-5.588779449462891	-114.51513671875	-512.6058349609375	-0.0	-0.0	-0.0	-0.0	-0.0	-0.0	70243.4453125	-3577.914306640625	-795.8919677734375
0.003	-0.0	-0.0	-0.0	24.55839157104492	59.93380737304688	-362.4132995605469	-5.272039413452148	-114.70468139648438	-514.1492309570312	-0.0	-0.0	-0.0	-0.0	-0.0	-0.0	70877.0234375	-4108.24609375	-850.8349609375
0.0035	-0.0	-0.0	-0.0	21.384979248046875	63.14241790771485	-370.7378234863281	-3.776535987854004	-114.26302337646484	-519.2383422851562	-0.0	-0.0	-0.0	-0.0	-0.0	-0.0	71384.3515625	-4373.37744140625	-786.0234985351562
0.004	-0.0	-0.0	-0.0	20.021196365356445	65.14054870605469	-376.4898071289063	-3.2315268516540527	-114.3007583618164	-522.2308959960938	-0.0	-0.0	-0.0	-0.0	-0.0	-0.0	72350.390625	-4666.52734375	-679.6480712890625
0.0045000000000000005	-0.0	-0.0	-0.0	18.811199188232425	67.30565643310547	-380.3748168945313	-2.078127145767212	-113.8973617553711	-524.7230834960938	-0.0	-0.0	-0.0	-0.0	-0.0	-0.0	72254.375	-4967.744140625	-462.7355346679688
0.005	-0.0	-0.0	-0.0	18.413469314575195	68.90982818603516	-384.259765625	-1.0390028953552246	-114.11036682128906	-526.5733642578125	-0.0	-0.0	-0.0	-0.0	-0.0	-0.0	73040.59375	-5175.9423828125	-470.62701416015625
0.0055	-0.0	-0.0	-0.0	17.6894474029541	71.12606811523438	-388.9377136230469	-0.2661323547363281	-113.64610290527344	-527.8165893554688	-0.0	-0.0	-0.0	-0.0	-0.0	-0.0	73402.8828125	-5705.74658203125	-406.13812255859375
0.006	-0.0	-0.0	-0.0	16.659029006958008	73.55840301513672	-390.8678894042969	0.5579127073287964	-113.70726013183594	-527.917236328125	-0.0	-0.0	-0.0	-0.0	-0.0	-0.0	73708.5703125	-5819.08154296875	-468.8037109375
0.006500000000000001	-0.0	-0.0	-0.0	15.931248664855955	75.54518127441406	-396.8149719238281	0.9874619245529176	-113.02618408203124	-527.7150268554688	-0.0	-0.0	-0.0	-0.0	-0.0	-0.0	73587.4765625	-5953.13330078125	-358.2042541503906
0.007	-0.0	-0.0	-0.0	15.139817237854004	78.68414306640625	-402.5223083496094	1.611159086227417	-112.67281341552734	-527.8157958984375	-0.0	-0.0	-0.0	-0.0	-0.0	-0.0	73781.3125	-5935.6220703125	-324.1134338378906
0.0075	-0.0	-0.0	-0.0	15.764230728149414	80.57010650634766	-405.80377197265625	2.180717945098877	-111.85214233398438	-525.9681396484375	-0.0	-0.0	-0.0	-0.0	-0.0	-0.0	73395.9609375	-6244.1708984375	-353.1639709472656
0.008	-0.0	-0.0	-0.0	16.2473087310791	82.70203399658203	-410.748291015625	2.395191192626953	-111.601806640625	-521.64697265625	-0.0	-0.0	-0.0	-0.0	-0.0	-0.0	73191.921875	-6260.03466796875	-391.2629089355469
0.0085	-0.0	-0.0	-0.0	16.288616180419922	84.79524993896484	-414.2800903320313	2.9642648696899414	-110.75540161132812	-517.6470336914062	-0.0	-0.0	-0.0	-0.0	-0.0	-0.0	72660.96875	-6103.55126953125	-340.01953125
0.009000000000000001	-0.0	-0.0	-0.0	15.674837112426758	86.28878784179688	-420.5753784179688	3.00549054145813	-109.80975341796876	-513.3972778320312	-0.0	-0.0	-0.0	-0.0	-0.0	-0.0	71964.875	-5944.8916015625	-402.6886901855469
0.0095	-0.0	-0.0	-0.0	16.703258514404297	87.49982452392578	-426.1015319824219	3.4857735633850098	-109.25392150878906	-508.81646728515625	-0.0	-0.0	-0.0	-0.0	-0.0	-0.0	71534.8359375	-5686.8359375	-555.6957397460938
0.01	-0.0	-0.0	-0.0	17.85230827331543	88.66863250732422	-430.607177734375	3.511986255645752	-108.73426055908205	-503.3332214355469	-0.0	-0.0	-0.0	-0.0	-0.0	-0.0	70760.796875	-5550.19970703125	-653.3557739257812
0.0105	-0.0	-0.0	-0.0	17.706449508666992	89.76432800292969	-433.8491821289063	3.4698519706726074	-108.0435028076172	-500.7864990234375	-0.0	-0.0	-0.0	-0.0	-0.0	-0.0	70262.1484375	-5108.125	-763.1884765625
0.011	-0.0	-0.0	-0.0	17.412742614746094	89.66805267333984	-437.1319580078125	3.272407054901123	-107.27484893798828	-494.5021057128906	-0.0	-0.0	-0.0	-0.0	-0.0	-0.0	69601.3515625	-5086.234375	-1024.71240234375
0.0115	-0.0	-0.0	-0.0	17.682998657226562	89.67483520507812	-438.29632568359375	2.589158296585083	-106.7644500732422	-490.55804443359375	-0.0	-0.0	-0.0	-0.0	-0.0	-0.0	68902.7890625	-4773.99560546875	-1232.7032470703125
0.012	-0.0	-0.0	-0.0	18.29768943786621	88.90655517578125	-440.6634216308594	2.040348052978516	-106.8954849243164	-487.4536437988281	-0.0	-0.0	-0.0	-0.0	-0.0	-0.0	68115.6171875	-4229.97607421875	-1455.1619873046875
0.0125	-0.0	-0.0	-0.0	17.957950592041016	89.12112426757812	-441.7545471191406	1.2683860063552856	-105.88834381103516	-482.9136962890625	-0.0	-0.0	-0.0	-0.0	-0.0	-0.0	67330.515625	-3879.25927734375	-1844.339599609375
0.013000000000000001	-0.0	-0.0	-0.0	17.84210205078125	89.82524871826172	-440.9103698730469	-0.1163818836212158	-105.40333557128906	-479.2809143066406	-0.0	-0.0	-0.0	-0.0	-0.0	-0.0	66785.828125	-3363.705322265625	-2305.210693359375
0.0135	-0.0	-0.0	-0.0	17.636940002441406	90.07534790039062	-442.5692138671875	-0.4526525139808655	-104.8378448486328	-474.5328674316406	-0.0	-0.0	-0.0	-0.0	-0.0	-0.0	65899.8515625	-3005.0283203125	-2655.387451171875
0.014	-0.0	-0.0	-0.0	17.726070404052734	90.14636993408205	-443.5224609375	-1.206474542617798	-103.72498321533205	-469.6090698242188	-0.0	-0.0	-0.0	-0.0	-0.0	-0.0	65300.140625	-2437.193359375	-2943.1806640625
0.0145	-0.0	-0.0	-0.0	17.09293556213379	90.39545440673828	-441.6876220703125	-2.5634238719940186	-103.25675201416016	-467.3059387207031	-0.0	-0.0	-0.0	-0.0	-0.0	-0.0	64942.6484375	-1948.4622802734373	-3341.50830078125
0.015	-0.0	-0.0	-0.0	16.949996948242188	90.7700424194336	-442.7074890136719	-3.761086940765381	-102.27651977539062	-466.361328125	-0.0	-0.0	-0.0	-0.0	-0.0	-0.0	64445.79296875	-1834.683349609375	-3956.088134765625
0.0155	-0.0	-0.0	-0.0	16.895986557006836	90.7241439819336	-440.35052490234375	-4.567676544189453	-101.18997192382812	-461.6184692382813	-0.0	-0.0	-0.0	-0.0	-0.0	-0.0	63662.55859375	-1438.136474609375	-4277.08935546875
0.016	-0.0	-0.0	-0.0	16.38768768310547	90.8537368774414	-440.3083190917969	-5.960000038146973	-99.93712615966795	-459.5569763183594	-0.0	-0.0	-0.0	-0.0	-0.0	-0.0	63578.0	-858.0997314453125	-4787.58251953125
0.0165	-0.0	-0.0	-0.0	15.604009628295898	91.61823272705078	-441.3675231933594	-6.529728412628174	-98.6285171508789	-456.2786254882813	-0.0	-0.0	-0.0	-0.0	-0.0	-0.0	63035.15234375	-738.62841796875	-5099.587890625
0.017	-0.0	-0.0	-0.0	14.479290962219238	91.6999053955078	-438.29632568359375	-7.336014270782471	-97.50714111328124	-455.8246765136719	-0.0	-0.0	-0.0	-0.0	-0.0	-0.0	62682.9375	-383.4292907714844	-5473.9501953125
0.0175	-0.0	-0.0	-0.0	13.532767295837402	91.41307067871094	-437.2070007324219	-8.065038681030273	-96.13612365722656	-453.5479736328125	-0.0	-0.0	-0.0	-0.0	-0.0	-0.0	62413.23828125	-156.24493408203125	-5915.22607421875
0.018000000000000002	-0.0	-0.0	-0.0	12.52406120300293	91.8461456298828	-435.7952270507813	-9.171716690063477	-95.38742065429688	-451.80218505859375	-0.0	-0.0	-0.0	-0.0	-0.0	-0.0	62278.8984375	179.61355590820312	-6269.26220703125
0.0185	-0.0	-0.0	-0.0	11.954208374023438	91.4477996826172	-435.8240356445313	-9.88859748840332	-94.38885498046876	-449.5718383789063	-0.0	-0.0	-0.0	-0.0	-0.0	-0.0	61866.45703125	628.810791015625	-6726.00341796875
0.019	-0.0	-0.0	-0.0	11.09644889831543	91.72899627685548	-435.6607055664063	-10.120067596435549	-93.08404541015624	-446.5372314453125	-0.0	-0.0	-0.0	-0.0	-0.0	-0.0	61518.53515625	493.2000427246094	-7052.1142578125
0.0195	-0.0	-0.0	-0.0	10.76697826385498	92.12664031982422	-436.5037841796875	-10.59072494506836	-92.55430603027344	-445.5444641113281	-0.0	-0.0	-0.0	-0.0	-0.0	-0.0	61351.26171875	928.1752319335938	-7209.73828125
0.02	-0.0	-0.0	-0.0	9.950834274291992	92.46234130859376	-436.5303955078125	-10.754197120666504	-91.19569396972656	-443.4225463867188	-0.0	-0.0	-0.0	-0.0	-0.0	-0.0	61076.578125	896.1812744140625	-7538.06494140625
0.0205	-0.0	-0.0	-0.0	9.23755168914795	92.80381774902344	-437.12744140625	-10.40656852722168	-90.48951721191406	-439.2895202636719	-0.0	-0.0	-0.0	-0.0	-0.0	-0.0	60440.43359375	1303.535400390625	-7674.54296875
0.021	-0.0	-0.0	-0.0	8.88719367980957	93.18744659423828	-438.734619140625	-10.34538459777832	-90.16165924072266	-439.4985961914063	-0.0	-0.0	-0.0	-0.0	-0.0	-0.0	60274.671875	1329.0418701171875	-7820.6064453125
0.021500000000000002	-0.0	-0.0	-0.0	8.213422775268555	93.89411163330078	-439.9524841308594	-10.168045997619627	-89.8354721069336	-436.4151916503906	-0.0	-0.0	-0.0	-0.0	-0.0	-0.0	59981.04296875	1259.5018310546875	-7772.3642578125
0.022	-0.0	-0.0	-0.0	7.549279689788818	94.17144012451172	-441.6080322265625	-9.88043212890625	-89.23237609863281	-434.0806274414063	-0.0	-0.0	-0.0	-0.0	-0.0	-0.0	59620.49609375	1411.2298583984375	-7731.12890625
0.0225	-0.0	-0.0	-0.0	7.24827766418457	95.2860336303711	-444.89642333984375	-9.43675708770752	-89.29896545410156	-432.598876953125	-0.0	-0.0	-0.0	-0.0	-0.0	-0.0	59202.109375	1355.1451416015625	-7710.45166015625
0.023	-0.0	-0.0	-0.0	7.042237758636475	96.03752136230467	-446.1768798828125	-8.848876953125	-89.42015838623047	-431.5513916015625	-0.0	-0.0	-0.0	-0.0	-0.0	-0.0	59076.08984375	1409.08837890625	-7682.328125
0.0235	-0.0	-0.0	-0.0	6.769462585449219	97.19062042236328	-450.2145080566406	-8.33341121673584	-90.03282928466797	-429.6750793457031	-0.0	-0.0	-0.0	-0.0	-0.0	-0.0	58642.5234375	1437.0068359375	-7520.8984375
0.024	-0.0	-0.0	-0.0	6.841187000274658	98.22684478759766	-452.8174133300781	-7.723117351531982	-90.52972412109376	-428.1693420410156	-0.0	-0.0	-0.0	-0.0	-0.0	-0.0	58544.875	1350.456787109375	-7453.79638671875
0.0245	-0.0	-0.0	-0.0	7.164943218231201	99.44634246826172	-456.6422424316406	-7.046122074127197	-91.26406860351562	-428.8679504394531	-0.0	-0.0	-0.0	-0.0	-0.0	-0.0	58338.796875	1421.290283203125	-7175.54052734375
0.025	-0.0	-0.0	-0.0	6.545251369476318	100.83934020996094	-462.1823425292969	-6.653308868408203	-91.58475494384766	-427.3233337402344	-0.0	-0.0	-0.0	-0.0	-0.0	-0.0	58227.1015625	1427.6346435546875	-6989.697265625
